<?xml version="1.0" standalone="no"?><!DOCTYPE svg PUBLIC "-//W3C//DTD SVG 1.1//EN" "http://www.w3.org/Graphics/SVG/1.1/DTD/svg11.dtd"><svg t="1592734580091" class="icon" viewBox="0 0 1024 1024" version="1.1" xmlns="http://www.w3.org/2000/svg" p-id="3383" width="64" height="64" xmlns:xlink="http://www.w3.org/1999/xlink"><defs><style type="text/css"></style></defs><path d="M358.325386 563.073731m-76.782781 0a76.782781 76.782781 0 1 0 153.565563 0 76.782781 76.782781 0 1 0-153.565563 0Z" fill="#13927D" p-id="3384"></path><path d="M665.456512 563.073731m-76.782781 0a76.782781 76.782781 0 1 0 153.565563 0 76.782781 76.782781 0 1 0-153.565563 0Z" fill="#13927D" p-id="3385"></path><path d="M511.890949 0c268.560575 0 486.290949 217.730374 486.29095 486.290949 0 119.627574-43.459054 232.472668-120.267431 320.184199l-7.703872 8.574077V972.581899a51.188521 51.188521 0 0 1-47.374976 51.060549l-3.839139 0.127971a51.188521 51.188521 0 0 1-51.034956-47.374976l-0.127971-3.839139v-178.084864a51.188521 51.188521 0 0 1 15.07502-36.267067A382.480629 382.480629 0 0 0 895.804857 486.290949c0-212.022854-171.891053-383.913907-383.913908-383.913907-212.022854 0-383.913907 171.891053-383.913907 383.913907 0 103.477595 41.078788 200.326277 112.921877 271.939018a51.188521 51.188521 0 0 1 14.844671 31.736883l0.204754 4.530184V972.581899a51.188521 51.188521 0 0 1-102.24907 3.839139L153.571302 972.581899v-157.532674A484.652917 484.652917 0 0 1 25.727971 497.501235L25.6 486.290949C25.6 217.730374 243.330374 0 511.890949 0z" fill="#13927D" p-id="3386"></path><path d="M511.890949 793.422075a51.188521 51.188521 0 0 1 51.06055 47.349382L563.07947 844.610596v127.971303a51.188521 51.188521 0 0 1-102.24907 3.839139L460.702428 972.581899v-127.971303a51.188521 51.188521 0 0 1 51.188521-51.188521z" fill="#13927D" p-id="3387"></path></svg>