<?xml version="1.0" standalone="no"?><!DOCTYPE svg PUBLIC "-//W3C//DTD SVG 1.1//EN" "http://www.w3.org/Graphics/SVG/1.1/DTD/svg11.dtd"><svg t="1705234302508" class="icon" viewBox="0 0 1024 1024" version="1.1" xmlns="http://www.w3.org/2000/svg" p-id="5633" xmlns:xlink="http://www.w3.org/1999/xlink" width="32" height="32"><path d="M943.40787 319.968753 336.467142 319.968753c-44.395664 0-80.492139 36.096475-80.492139 80.492139l0 543.046968c0 44.395664 36.096475 80.492139 80.492139 80.492139l607.040719 0c44.395664 0 80.492139-36.096475 80.492139-80.492139L1024 400.360902C1023.90001 356.065228 987.803535 319.968753 943.40787 319.968753zM959.906259 943.40787c0 9.099111-7.399277 16.498389-16.498389 16.498389L336.467142 959.906259c-9.099111 0-16.498389-7.399277-16.498389-16.498389L319.968753 400.360902c0-9.099111 7.399277-16.498389 16.498389-16.498389l607.040719 0c9.099111 0 16.498389 7.399277 16.498389 16.498389L960.006249 943.40787z" p-id="5634" fill="#ffffff"></path><path d="M783.423494 223.978127c0-17.698272-14.298604-31.996875-31.996875-31.996875L208.479641 191.981252c-44.395664 0-80.492139 36.096475-80.492139 80.492139l0 543.046968c0 17.698272 14.298604 31.996875 31.996875 31.996875 17.698272 0 31.996875-14.298604 31.996875-31.996875l0-543.046968c0-9.099111 7.399277-16.498389 16.498389-16.498389l543.046968 0C769.12489 255.975002 783.423494 241.576409 783.423494 223.978127z" p-id="5635" fill="#ffffff"></path><path d="M655.435993 95.990626c0-17.698272-14.298604-31.996875-31.996875-31.996875L80.492139 63.993751c-44.395664 0-80.492139 36.096475-80.492139 80.492139l0 543.046968c0 17.698272 14.298604 31.996875 31.996875 31.996875 17.698272 0 31.996875-14.298604 31.996875-31.996875l0-543.046968c0-9.099111 7.399277-16.498389 16.498389-16.498389l543.046968 0C641.137389 127.987501 655.435993 113.588907 655.435993 95.990626z" p-id="5636" fill="#ffffff"></path></svg>