<?xml version="1.0" encoding="utf-8"?>
<!-- Generator: Adobe Illustrator 25.4.1, SVG Export Plug-In . SVG Version: 6.00 Build 0)  -->
<svg version="1.1" id="图层_1" xmlns="http://www.w3.org/2000/svg" xmlns:xlink="http://www.w3.org/1999/xlink" x="0px" y="0px"
	 viewBox="0 0 16 16" style="enable-background:new 0 0 16 16;" xml:space="preserve">
<style type="text/css">
	.st0{fill:#fff;}
</style>
<g>
	<path class="st0" d="M5.5,2.5V1H1v1.1l0,0l0,0v3.4h1.5V3.6l3.7,3.7l1.1-1.1L3.6,2.5H5.5z M9.8,7.3l3.7-3.7v1.9H15V2.1l0,0l0,0V1
		h-4.5v1.5h1.9L8.7,6.2L9.8,7.3z M6.2,8.7l-3.7,3.7v-1.9H1v3.4l0,0l0,0V15h1.1l0,0l0,0h3.4v-1.5H3.6l3.7-3.7L6.2,8.7z M15,10.5h-1.5
		v1.9L9.8,8.7L8.7,9.8l3.7,3.7h-1.9V15H15v-1.1l0,0l0,0V10.5z"/>
</g>
</svg>
