<?xml version="1.0" encoding="utf-8"?>
<!-- Generator: Adobe Illustrator 25.4.1, SVG Export Plug-In . SVG Version: 6.00 Build 0)  -->
<svg version="1.1" id="图层_1" xmlns="http://www.w3.org/2000/svg" xmlns:xlink="http://www.w3.org/1999/xlink" x="0px" y="0px"
	 viewBox="0 0 16 16" style="enable-background:new 0 0 16 16;" xml:space="preserve">
<style type="text/css">
	.st0{fill:#fff;}
</style>
<g>
	<path class="st0" d="M11.5,12L11.5,12L9.9,8.6L8.3,9.2l0.9,1.9L2.1,8.5L1.5,10l7.2,2.7l-2,0.8L7.5,15l3.1-1.3l1.5-0.7L11.5,12
		L11.5,12z M7.7,1L7,2.5l2,0.9L1.5,6.3L2.1,8l7.5-2.9l-1,2l1.6,0.7l1.7-3.6l0,0l0,0L12.5,3l-1.6-0.7L7.7,1z M12.8,1v14h1.7V1H12.8z"
		/>
</g>
</svg>
