<?xml version="1.0" encoding="utf-8"?>
<!-- Generator: Adobe Illustrator 25.4.1, SVG Export Plug-In . SVG Version: 6.00 Build 0)  -->
<svg version="1.1" id="图层_1" xmlns="http://www.w3.org/2000/svg" xmlns:xlink="http://www.w3.org/1999/xlink" x="0px" y="0px"
	 viewBox="0 0 18 18" style="enable-background:new 0 0 18 18;" xml:space="preserve">
<style type="text/css">
	.st0{fill:#3D3D3D;}
	.st1{display:none;fill:#3D3D3D;}
	.st2{display:none;}
	.st3{display:inline;fill-rule:evenodd;clip-rule:evenodd;fill:#3D3D3D;}
	.st4{display:inline;fill:#3D3D3D;}
</style>
<path class="st0" d="M9.3,1.2c0.4,0,0.8,0.4,0.8,0.8l0,0v2.4c0,0.4-0.4,0.8-0.8,0.8c-0.4,0-0.8-0.4-0.8-0.8V2
	C8.5,1.6,8.9,1.2,9.3,1.2z M9.3,13.2c0.4,0,0.8,0.4,0.8,0.8l0,0v2.4c0,0.4-0.4,0.8-0.8,0.8c-0.4,0-0.8-0.4-0.8-0.8V14
	C8.5,13.6,8.9,13.2,9.3,13.2L9.3,13.2z M17.3,9.2c0,0.4-0.4,0.8-0.8,0.8l0,0h-2.4c-0.4,0-0.8-0.4-0.8-0.8c0-0.4,0.4-0.8,0.8-0.8h2.4
	C16.9,8.4,17.3,8.8,17.3,9.2L17.3,9.2z M5.3,9.2c0,0.4-0.4,0.8-0.8,0.8l0,0H2.1c-0.4,0-0.8-0.4-0.8-0.8c0-0.4,0.4-0.8,0.8-0.8h2.4
	C4.9,8.4,5.3,8.8,5.3,9.2z M15,14.9c-0.3,0.3-0.8,0.3-1.1,0l-1.7-1.7c-0.3-0.3-0.3-0.8,0-1.1c0.3-0.3,0.8-0.3,1.1,0l1.7,1.7
	C15.3,14.1,15.3,14.6,15,14.9C15,14.9,15,14.9,15,14.9z M6.5,6.4c-0.3,0.3-0.8,0.3-1.1,0L3.6,4.7c-0.3-0.3-0.3-0.8,0-1.1
	c0.3-0.3,0.8-0.3,1.1,0l1.7,1.7C6.8,5.6,6.8,6.1,6.5,6.4z M3.6,14.9c-0.3-0.3-0.3-0.8,0-1.1l1.7-1.7c0.3-0.3,0.8-0.3,1.1,0
	c0.3,0.3,0.3,0.8,0,1.1c0,0,0,0,0,0l-1.7,1.7C4.5,15.2,4,15.2,3.6,14.9C3.6,14.9,3.6,14.9,3.6,14.9z M12.1,6.4
	c-0.3-0.3-0.3-0.8,0-1.1l1.7-1.7c0.3-0.3,0.8-0.3,1.1,0s0.3,0.8,0,1.1l-1.7,1.7C12.9,6.7,12.4,6.7,12.1,6.4z"/>
<path class="st1" d="M11.6,2.2h4c0.2,0,0.3,0.1,0.5,0.2c0.1,0.1,0.2,0.3,0.2,0.5v4c0,0.2-0.1,0.3-0.2,0.5c-0.1,0.1-0.3,0.2-0.5,0.2
	c-0.2,0-0.3-0.1-0.5-0.2C15,7.2,15,7.1,15,6.9V4.5l-4.9,4.9C9.9,9.5,9.8,9.6,9.6,9.6c-0.2,0-0.3-0.1-0.5-0.2C9,9.3,8.9,9.1,8.9,8.9
	c0-0.2,0.1-0.3,0.2-0.5L14,3.6h-2.4c-0.2,0-0.3-0.1-0.5-0.2C11,3.2,11,3.1,11,2.9c0-0.2,0.1-0.3,0.2-0.5C11.3,2.3,11.5,2.2,11.6,2.2
	L11.6,2.2z M4.3,2.2h4.2c0.2,0,0.3,0.1,0.5,0.2c0.1,0.1,0.2,0.3,0.2,0.5c0,0.2-0.1,0.3-0.2,0.5C8.9,3.5,8.7,3.6,8.5,3.6H4.3
	c-0.2,0-0.3,0.1-0.5,0.2C3.7,3.9,3.6,4,3.6,4.2v10c0,0.2,0.1,0.3,0.2,0.5c0.1,0.1,0.3,0.2,0.5,0.2h10c0.2,0,0.3-0.1,0.5-0.2
	c0.1-0.1,0.2-0.3,0.2-0.5v-4c0-0.2,0.1-0.3,0.2-0.5c0.1-0.1,0.3-0.2,0.5-0.2c0.2,0,0.3,0.1,0.5,0.2c0.1,0.1,0.2,0.3,0.2,0.5v4
	c0,0.5-0.2,1-0.6,1.4c-0.4,0.4-0.9,0.6-1.4,0.6h-10c-0.5,0-1-0.2-1.4-0.6c-0.4-0.4-0.6-0.9-0.6-1.4v-10c0-0.5,0.2-1,0.6-1.4
	C3.3,2.4,3.7,2.2,4.3,2.2L4.3,2.2z"/>
<g class="st2">
	<path class="st3" d="M5.7,12.9V1.2H4.2v2.9H1.3v1.4h2.9v7.3c0,0.4,0.1,0.7,0.4,1c0.3,0.3,0.6,0.4,1,0.4h7.3v2.9h1.4v-2.9h2.9v-1.4
		H5.7z M12.9,11.4h1.4V5.6c0-0.4-0.1-0.7-0.4-1c-0.3-0.3-0.6-0.4-1-0.4H7.1v1.4h5.8V11.4z M12.3,7.3l-1-1l-4.6,4.6l1,1L12.3,7.3z"/>
</g>
<g class="st2">
	<path class="st4" d="M12.9,1.2H6c-1.7,0-3,1.4-3,3v1.6H2.6l-0.1,0c-0.3,0-0.6,0.3-0.6,0.7c0,0.4,0.3,0.7,0.7,0.7H3v4H2.6l-0.1,0
		c-0.3,0-0.6,0.3-0.6,0.7c0,0.4,0.3,0.7,0.7,0.7H3v1.6c0,1.7,1.4,3,3,3h6.9c1.7,0,3-1.4,3-3V4.3C15.9,2.6,14.6,1.2,12.9,1.2z
		 M14.6,14.2L14.6,14.2c0,1-0.8,1.7-1.7,1.7H6l-0.1,0c-0.9,0-1.6-0.8-1.6-1.7v-1.6h0.4l0.1,0c0.3,0,0.6-0.3,0.6-0.7
		c0-0.4-0.3-0.7-0.7-0.7H4.3v-4h0.4l0.1,0c0.3,0,0.6-0.3,0.6-0.7c0-0.4-0.3-0.7-0.7-0.7H4.3V4.3l0-0.1c0-0.9,0.8-1.6,1.7-1.6h6.9
		l0.1,0c0.9,0,1.6,0.8,1.6,1.7V14.2z M12,6.3c-0.4,0-0.7,0.3-0.7,0.7v4.6l0,0.1c0,0.3,0.3,0.6,0.7,0.6c0.4,0,0.7-0.3,0.7-0.7V6.9
		l0-0.1C12.6,6.5,12.3,6.3,12,6.3z"/>
</g>
</svg>
