<?xml version="1.0" encoding="utf-8"?>
<!-- Generator: Adobe Illustrator 25.4.1, SVG Export Plug-In . SVG Version: 6.00 Build 0)  -->
<svg version="1.1" xmlns="http://www.w3.org/2000/svg" xmlns:xlink="http://www.w3.org/1999/xlink" x="0px" y="0px"
	 viewBox="0 0 26 26" style="enable-background:new 0 0 26 26;" xml:space="preserve">
<style type="text/css">
	.st0{display:none;}
	.st1{display:inline;}
	.st2{fill:#595959;}
	.st3{display:inline;fill:#595959;}
	.st4{display:none;fill:#595959;}
</style>
<g id="图层_1" class="st0">
	<g class="st1">
		<path class="st2" d="M24,15V9H14v2H8V9h4V3H2v6h4v12h8v2h10v-6H14v2H8v-6h6v2H24z M16,11h6v2h-6V11z M16,19h6v2h-6V19z M4,7V5h6v2
			H4z"/>
	</g>
</g>
<g id="图层_2" class="st0">
	<path class="st3" d="M21.7,15.7c-0.7-0.4-1.5-0.3-2.1,0.1l-2.9-1.7c0.1-0.4,0.2-0.7,0.2-1.1c0-0.4-0.1-0.7-0.2-1.1l3-1.7
		c0.6,0.3,1.3,0.4,2,0c0.9-0.6,1.3-1.8,0.7-2.7c-0.5-1-1.8-1.3-2.7-0.7c-0.6,0.4-1,1-1,1.7l-3,1.7c-0.5-0.5-1.1-0.9-1.8-1.1V5.7
		c0.6-0.3,1-1,1-1.7c0-1.1-0.9-2-2-2s-2,0.9-2,2c0,0.7,0.4,1.4,1,1.7v3.4c-0.7,0.2-1.3,0.5-1.8,1l-3-1.7c0-0.7-0.4-1.3-1-1.7
		C5.3,6.2,4.1,6.6,3.5,7.5c-0.5,1-0.2,2.2,0.7,2.7c0.7,0.4,1.4,0.3,2,0l2.9,1.7C9.1,12.2,9,12.6,9,13c0,0.3,0.1,0.7,0.1,1l-3,1.8
		c-0.6-0.3-1.2-0.3-1.8,0.1c-0.9,0.6-1.3,1.8-0.7,2.7c0.5,1,1.8,1.3,2.7,0.7c0.7-0.4,1-1.1,1-1.9l2.8-1.7c0.5,0.5,1.1,0.9,1.8,1.1
		v3.6c-0.5,0.4-0.8,1-0.8,1.6c0,1.1,0.9,2,2,2s2-0.9,2-2c0-0.8-0.5-1.5-1.1-1.8v-3.3c0.7-0.2,1.4-0.5,1.9-1l3,1.8
		c0,0.7,0.4,1.3,1,1.6c0.9,0.6,2.2,0.2,2.7-0.7C23,17.5,22.7,16.3,21.7,15.7z M13,15c-1.1,0-2-0.9-2-2s0.9-2,2-2s2,0.9,2,2
		S14.1,15,13,15z"/>
</g>
<g id="图层_3">
	<g>
		<path class="st2" d="M22,17v-5h-8V9h5V3H7v6h5v3H4v5H2v6h6v-6H6v-3h6v3h-2v6h6v-6h-2v-3h6v3h-2v6h6v-6H22z M6,21H4v-2h2V21z
			 M14,21h-2v-2h2V21z M9,7V5h8v2H9z M22,21h-2v-2h2V21z"/>
	</g>
</g>
<g id="图层_4">
	<g class="st0">
		<path class="st3" d="M14,14.2v10h10v-10H14z M22,22.2h-6v-6h6V22.2z M20,11.8l-5.6-5.6l-1.4,1.4l5.6,5.6L20,11.8z M23,8.8
			l-5.6-5.6l-1.4,1.4l5.6,5.6L23,8.8z M5.9,14.6l5.6,5.6l1.4-1.4l-5.6-5.6L5.9,14.6z M2.9,17.6l5.6,5.6l1.4-1.4l-5.6-5.6L2.9,17.6z
			 M12,2.2H2v10h10V2.2z M10,10.2H4v-6h6V10.2z"/>
	</g>
	<g class="st0">
		<path class="st3" d="M26,13.2c0-3.4-5.9-10-13-10c-2.4,0-4.7,0.8-6.7,1.9L4.5,3.3c-0.4-0.4-1-0.4-1.4,0c-0.4,0.4-0.4,1,0,1.4
			l1.5,1.5C1.8,8.4,0,11.3,0,13.2c0,3.4,5.9,10,13,10c2.4,0,4.7-0.8,6.7-1.9l1.8,1.8c0.4,0.4,1,0.4,1.4,0c0.4-0.4,0.4-1,0-1.4
			l-1.5-1.5C24.1,17.9,26,15.1,26,13.2z M13,21.2c-6.1,0-11-5.7-11-8C2,11.9,3.5,9.5,6,7.6l2.8,2.8C8.3,11.2,8,12.2,8,13.2
			c0,2.8,2.2,5,5,5c1,0,2-0.3,2.8-0.8l2.5,2.5C16.6,20.6,14.8,21.2,13,21.2z M14.2,15.9c-0.4,0.2-0.8,0.3-1.3,0.3c-1.7,0-3-1.4-3-3
			c0-0.5,0.1-0.9,0.3-1.3L14.2,15.9z M11.7,10.5c0.4-0.2,0.8-0.3,1.3-0.3c1.7,0,3,1.4,3,3c0,0.5-0.1,0.9-0.3,1.3L11.7,10.5z
			 M19.9,18.7l-2.8-2.8c0.5-0.8,0.8-1.7,0.8-2.8c0-2.8-2.2-5-5-5c-1,0-2,0.3-2.8,0.8L7.7,6.5c1.5-0.8,3.3-1.4,5.2-1.4
			c6.1,0,11,5.7,11,8C24,14.5,22.4,16.9,19.9,18.7z"/>
	</g>
	<path class="st4" d="M6,6.2h10c3.4,0,8,3.2,8,9c0,6.9-4.7,9-8.1,9H3.8c-0.6,0-1-0.5-1-1c0,0,0,0,0,0c0-0.6,0.5-1,1-1l12.2,0
		c2.2,0,6-2.1,6-7c0,0,0,0,0,0c0-6.7-6-7-6-7H6L5.4,8.1l2.2,2.2c0.4,0.4,0.4,1,0,1.4c-0.1,0.1-0.3,0.2-0.5,0.3c-0.4,0.1-0.7,0-1-0.3
		L2.3,7.8c-0.4-0.4-0.4-1,0-1.4c0,0,0,0,0,0l3.9-3.9c0.4-0.4,1-0.4,1.4,0c0.4,0.4,0.4,1,0,1.4L5.4,6.1L6,6.2z"/>
	<g class="st0">
		<path class="st3" d="M25.8,18.3c-0.4-1.3-1.2-2.4-2.4-3.1c-0.1-0.1-0.2-0.1-0.3-0.2c0-3.6-1.9-6.9-5-8.7c0-0.1,0-0.2,0-0.4
			c0-1.4-0.5-2.6-1.5-3.6c-1-1-2.2-1.5-3.6-1.5c-1.4,0-2.7,0.5-3.6,1.5c-1,1-1.5,2.2-1.5,3.6c0,0.1,0,0.3,0,0.4
			c-3.2,1.8-5,5.1-5,8.7c-0.1,0.1-0.2,0.1-0.3,0.2c-2.4,1.4-3.2,4.5-1.9,6.9c0.7,1.2,1.8,2,3.1,2.3c0.4,0.1,0.8,0.2,1.3,0.2
			c0.9,0,1.8-0.2,2.6-0.7c0.1-0.1,0.2-0.1,0.3-0.2c1.5,0.9,3.3,1.3,5,1.3c1.8,0,3.5-0.5,5.1-1.3c0.1,0.1,0.2,0.1,0.3,0.2
			c0.8,0.5,1.7,0.7,2.6,0.7c0.5,0,0.9-0.1,1.3-0.2c1.3-0.3,2.4-1.1,3.1-2.3C26,20.9,26.2,19.6,25.8,18.3z M13,2.9
			c1.8,0,3.1,1.4,3.1,3.1c0,1.7-1.4,3.1-3.1,3.1c-1.4,0-2.6-0.9-3-2.2c0-0.2,0-0.3-0.1-0.5l0,0c0-0.1,0-0.3,0-0.5
			C9.9,4.2,11.2,2.9,13,2.9z M8.1,20.4c-0.1,0.5-0.4,0.9-0.7,1.3c-0.1,0.1-0.2,0.2-0.3,0.3c0,0,0,0,0,0c-0.1,0.1-0.3,0.2-0.4,0.3
			c-0.5,0.3-1,0.4-1.6,0.4c-0.3,0-0.5,0-0.8-0.1c-0.8-0.2-1.5-0.7-1.9-1.5c-0.8-1.5-0.3-3.4,1.2-4.2c0.5-0.3,1-0.4,1.6-0.4
			c0.3,0,0.5,0,0.8,0.1c0.8,0.2,1.5,0.7,1.9,1.5C8.2,18.8,8.3,19.6,8.1,20.4z M16,20.8c0.1,0.5,0.3,1,0.6,1.4
			c-1.1,0.5-2.4,0.8-3.6,0.8c-1.3,0-2.5-0.3-3.7-0.9c0.3-0.4,0.5-0.9,0.6-1.4c0.4-1.3,0.2-2.7-0.5-3.8c-0.7-1.1-1.8-2-3.1-2.3
			c-0.4-0.1-0.9-0.2-1.3-0.2h0c-0.1,0-0.1,0-0.2,0C5,12,6.3,9.8,8.5,8.3C9.3,10,11.1,11,13,11c1.9,0,3.7-1,4.5-2.7
			c2.1,1.4,3.4,3.7,3.6,6.2c-0.1,0-0.1,0-0.2,0c-0.5,0-0.9,0.1-1.3,0.2c-1.3,0.3-2.4,1.1-3.1,2.3C15.8,18.1,15.6,19.5,16,20.8z
			 M23.6,21.1c-0.4,0.7-1,1.2-1.9,1.5c-0.3,0.1-0.5,0.1-0.8,0.1c-0.5,0-1.1-0.1-1.6-0.4c-0.1-0.1-0.3-0.1-0.4-0.2c0,0,0,0,0,0
			c-0.1-0.1-0.2-0.2-0.4-0.3c-0.3-0.4-0.6-0.8-0.7-1.3c-0.2-0.8-0.1-1.6,0.3-2.3c0.4-0.7,1-1.2,1.9-1.5c0.3,0,0.5-0.1,0.8-0.1
			c0.3,0,0.5,0,0.8,0.1c0.1,0,0.2,0.1,0.3,0.1c0.2,0,0.3,0.1,0.5,0.2C23.9,17.7,24.5,19.6,23.6,21.1z"/>
	</g>
	<path class="st4" d="M14,21.2h2v-9l7-11H1l7,11v13h2v-14l-5-8h14l-5,8V21.2z M18,19.2h7v2h-7V19.2z M14,23.2h11v2H14V23.2z"/>
	<g class="st0">
		<path class="st3" d="M19,14.2l0-2l-12,0l0,2L19,14.2z M3,25.2l20,0l0-2l-20,0L3,25.2z M23,1.2l-20,0l0,2l20,0L23,1.2z M6.6,19.2
			L8,17.8l-4.6-4.6l4.6-4.6L6.6,7.2L1,12.8l0.4,0.4L1,13.6L6.6,19.2z M25,12.8l-5.6-5.6l-1.4,1.4l4.6,4.6L18,17.8l1.4,1.4l5.6-5.6
			l-0.4-0.4L25,12.8z"/>
	</g>
	<g class="st0">
		<path class="st3" d="M1,25.2l24,0l0-2l-24,0L1,25.2z M25,1.2l-24,0l0,2l24,0L25,1.2z M8.3,19.2l4.6-4.6l4.6,4.6l1.4-1.4l-4.6-4.6
			l4.6-4.6l-1.4-1.4l-4.6,4.6L8.3,7.2L6.9,8.6l4.6,4.6L7,17.8L8.3,19.2z"/>
	</g>
</g>
</svg>
