<?xml version="1.0" encoding="utf-8"?>
<!-- Generator: Adobe Illustrator 25.4.1, SVG Export Plug-In . SVG Version: 6.00 Build 0)  -->
<svg version="1.1" id="图层_1" xmlns="http://www.w3.org/2000/svg" xmlns:xlink="http://www.w3.org/1999/xlink" x="0px" y="0px"
	 viewBox="0 0 24 24" style="enable-background:new 0 0 24 24;" xml:space="preserve">
<style type="text/css">
	.st0{fill-rule:evenodd;clip-rule:evenodd;fill:#798BAE;}
</style>
<path id="形状_746" class="st0" d="M15.7,3H1.6C1.3,3,1,3.3,1,3.6c0,0,0,0,0,0v1.8C1,5.8,1.3,6,1.6,6c0,0,0,0,0,0h14.1
	c0.3,0,0.6-0.3,0.6-0.6c0,0,0,0,0,0V3.6C16.4,3.3,16.1,3,15.7,3 M1.6,13.5h12.2c0.3,0,0.6-0.3,0.6-0.6v-1.8c0-0.3-0.3-0.6-0.6-0.6
	c0,0,0,0,0,0H1.6c-0.3,0-0.6,0.3-0.6,0.6c0,0,0,0,0,0v1.8C1,13.3,1.3,13.5,1.6,13.5 M15.7,18H1.6C1.3,18,1,18.2,1,18.6c0,0,0,0,0,0
	v1.8C1,20.7,1.3,21,1.6,21c0,0,0,0,0,0h14.1c0.3,0,0.6-0.3,0.6-0.6c0,0,0,0,0,0v-1.8C16.4,18.2,16.1,18,15.7,18 M22.2,7.7L17,11.6
	c-0.2,0.2-0.3,0.5-0.1,0.7c0,0,0.1,0.1,0.1,0.1l5.2,3.9c0.3,0.2,0.8,0.1,0.8-0.6V8.3C23,7.5,22.5,7.5,22.2,7.7"/>
</svg>
