<?xml version="1.0" standalone="no"?><!DOCTYPE svg PUBLIC "-//W3C//DTD SVG 1.1//EN" "http://www.w3.org/Graphics/SVG/1.1/DTD/svg11.dtd"><svg t="1620959165843" class="icon" viewBox="0 0 1076 1024" version="1.1" xmlns="http://www.w3.org/2000/svg" p-id="1883" xmlns:xlink="http://www.w3.org/1999/xlink" width="33.625" height="32"><defs><style type="text/css"></style></defs><path d="M1035.343058 389.375761c-14.780294-9.82764-34.592715-5.82867-44.3752 8.875762l-14.449756 21.672827C933.432544 199.180851 738.776272 32.004403 505.598758 32.004403c-269.153793 0-479.995597 210.841804-479.995597 479.995597s210.841804 479.995597 479.995597 479.995597c156.967696 0 318.277544-93.717503 410.963696-238.762345 9.500714-14.906729 5.156757-34.686639-9.749973-44.201803-14.843512-9.515164-34.686639-5.171206-44.187353 9.733717-66.530288 104.155645-202.748135 209.232463-357.028176 209.232463-233.278662 0-415.995823-182.731611-415.995823-415.995823S272.320096 96.004177 505.598758 96.004177c207.780262 0 379.976195 153.295652 410.647607 352.639063l-40.90184-27.266689c-14.780294-9.82764-34.592715-5.84312-44.3752 8.875762-9.81319 14.702626-5.84312 34.578265 8.875762 44.3752l95.998758 63.999774c1.096375 0.729713 2.311961 1.047607 3.457104 1.625598 1.076507 0.549091 4.078444 1.090957 5.22178 1.515418 3.60702 1.342021 13.026455 2.234293 13.026455 2.234293l0-0.561734 0 0.171591c0 0-3.924915 0-3.908659 0 3.812929 0 7.522904-0.718875 11.088381-2.048253 0.718875-0.269127 1.419688-0.384725 2.113277-0.700813 3.220489-1.46665 6.200751-3.379437 8.830607-5.908144 0.509354-0.487679 0.886854-1.029545 1.363696-1.549736 1.08915-1.193911 2.259581-2.277643 3.184365-3.663013l63.999774-95.99334C1054.030205 419.041109 1050.061941 399.172695 1035.343058 389.375761z" p-id="1884" fill="#1296db"></path></svg>