<?xml version="1.0" standalone="no"?><!DOCTYPE svg PUBLIC "-//W3C//DTD SVG 1.1//EN" "http://www.w3.org/Graphics/SVG/1.1/DTD/svg11.dtd"><svg t="1630122066725" class="icon" viewBox="0 0 1024 1024" version="1.1" xmlns="http://www.w3.org/2000/svg" p-id="2682" xmlns:xlink="http://www.w3.org/1999/xlink" width="64" height="64"><defs><style type="text/css"></style></defs><path d="M768 678.4C608 844.8 512 832 512 832s-121.6-12.8-249.6-153.6C128 531.2 128 396.8 128 339.2 128 147.2 307.2 0 512 0c211.2 0 384 147.2 384 339.2 0 76.8 12.8 198.4-128 339.2zM512 256c-70.4 0-128 57.6-128 128s57.6 128 128 128 128-57.6 128-128-57.6-128-128-128z m0 640c140.8 0 192 25.6 192 64s-51.2 64-192 64-192-25.6-192-64c0-32 51.2-64 192-64z" fill="#d81e06" p-id="2683"></path></svg>