<?xml version="1.0" encoding="utf-8"?>
<!-- Generator: Adobe Illustrator 25.4.1, SVG Export Plug-In . SVG Version: 6.00 Build 0)  -->
<svg version="1.1" id="图层_1" xmlns="http://www.w3.org/2000/svg" xmlns:xlink="http://www.w3.org/1999/xlink" x="0px" y="0px"
	 viewBox="0 0 24 24" style="enable-background:new 0 0 24 24;" xml:space="preserve">
<style type="text/css">
	.st0{fill-rule:evenodd;clip-rule:evenodd;fill:#fff;}
</style>
<path id="形状_12" class="st0" d="M0,12v10.6C0,23.4,0.7,24,1.5,24c0,0,0,0,0,0h11.4c0.8,0.1,1.4-0.5,1.5-1.3
	c0.1-0.8-0.5-1.4-1.3-1.5c-0.1,0-0.1,0-0.2,0H3V2.8h9.9c0.8,0.1,1.4-0.5,1.5-1.3c0.1-0.8-0.5-1.4-1.3-1.5c-0.1,0-0.1,0-0.2,0H1.5
	C0.7,0,0,0.6,0,1.4V12z M23.5,11c0.6,0.5,0.6,1.4,0.1,1.9c0,0-0.1,0.1-0.1,0.1l-4.7,4.2c-0.3,0.2-0.6,0.4-0.9,0.4
	c-0.8,0-1.4-0.6-1.4-1.4c0-0.4,0.2-0.8,0.5-1l2-1.7h-8.6c-0.8,0-1.4-0.6-1.4-1.3c0-0.8,0.6-1.4,1.3-1.4c0,0,0,0,0.1,0h8.6l-2-1.7
	c-0.3-0.3-0.5-0.6-0.5-1c0-0.8,0.7-1.4,1.5-1.4c0.3,0,0.7,0.1,0.9,0.4L23.5,11L23.5,11L23.5,11z"/>
</svg>
