<?xml version="1.0" encoding="utf-8"?>
<!-- Generator: Adobe Illustrator 25.4.1, SVG Export Plug-In . SVG Version: 6.00 Build 0)  -->
<svg version="1.1" id="图层_1" xmlns="http://www.w3.org/2000/svg" xmlns:xlink="http://www.w3.org/1999/xlink" x="0px" y="0px"
	 viewBox="0 0 18 18" style="enable-background:new 0 0 18 18;" xml:space="preserve">
<style type="text/css">
	.st0{display:none;fill:#3D3D3D;}
	.st1{fill:#3D3D3D;}
	.st2{display:none;}
	.st3{display:inline;fill-rule:evenodd;clip-rule:evenodd;fill:#3D3D3D;}
	.st4{display:inline;fill:#3D3D3D;}
</style>
<path class="st0" d="M9.3,1.2c0.4,0,0.8,0.4,0.8,0.8l0,0v2.4c0,0.4-0.4,0.8-0.8,0.8c-0.4,0-0.8-0.4-0.8-0.8V2
	C8.5,1.6,8.9,1.2,9.3,1.2z M9.3,13.2c0.4,0,0.8,0.4,0.8,0.8l0,0v2.4c0,0.4-0.4,0.8-0.8,0.8c-0.4,0-0.8-0.4-0.8-0.8V14
	C8.5,13.6,8.9,13.2,9.3,13.2L9.3,13.2z M17.3,9.2c0,0.4-0.4,0.8-0.8,0.8l0,0h-2.4c-0.4,0-0.8-0.4-0.8-0.8c0-0.4,0.4-0.8,0.8-0.8h2.4
	C16.9,8.4,17.3,8.8,17.3,9.2L17.3,9.2z M5.3,9.2c0,0.4-0.4,0.8-0.8,0.8l0,0H2.1c-0.4,0-0.8-0.4-0.8-0.8c0-0.4,0.4-0.8,0.8-0.8h2.4
	C4.9,8.4,5.3,8.8,5.3,9.2z M15,14.9c-0.3,0.3-0.8,0.3-1.1,0l-1.7-1.7c-0.3-0.3-0.3-0.8,0-1.1c0.3-0.3,0.8-0.3,1.1,0l1.7,1.7
	C15.3,14.1,15.3,14.6,15,14.9C15,14.9,15,14.9,15,14.9z M6.5,6.4c-0.3,0.3-0.8,0.3-1.1,0L3.6,4.7c-0.3-0.3-0.3-0.8,0-1.1
	c0.3-0.3,0.8-0.3,1.1,0l1.7,1.7C6.8,5.6,6.8,6.1,6.5,6.4z M3.6,14.9c-0.3-0.3-0.3-0.8,0-1.1l1.7-1.7c0.3-0.3,0.8-0.3,1.1,0
	c0.3,0.3,0.3,0.8,0,1.1c0,0,0,0,0,0l-1.7,1.7C4.5,15.2,4,15.2,3.6,14.9C3.6,14.9,3.6,14.9,3.6,14.9z M12.1,6.4
	c-0.3-0.3-0.3-0.8,0-1.1l1.7-1.7c0.3-0.3,0.8-0.3,1.1,0s0.3,0.8,0,1.1l-1.7,1.7C12.9,6.7,12.4,6.7,12.1,6.4z"/>
<path class="st1" d="M11.4,2.2h4c0.2,0,0.3,0.1,0.5,0.2C15.9,2.6,16,2.7,16,2.9v4c0,0.2-0.1,0.3-0.2,0.5c-0.1,0.1-0.3,0.2-0.5,0.2
	c-0.2,0-0.3-0.1-0.5-0.2c-0.1-0.1-0.2-0.3-0.2-0.5V4.5L9.8,9.4C9.6,9.5,9.5,9.6,9.3,9.6C9.1,9.6,9,9.5,8.8,9.4
	C8.7,9.3,8.6,9.1,8.6,8.9c0-0.2,0.1-0.3,0.2-0.5l4.9-4.9h-2.4c-0.2,0-0.3-0.1-0.5-0.2c-0.1-0.1-0.2-0.3-0.2-0.5
	c0-0.2,0.1-0.3,0.2-0.5C11,2.3,11.2,2.2,11.4,2.2L11.4,2.2z M4,2.2h4.2c0.2,0,0.3,0.1,0.5,0.2c0.1,0.1,0.2,0.3,0.2,0.5
	c0,0.2-0.1,0.3-0.2,0.5C8.6,3.5,8.4,3.6,8.2,3.6H4c-0.2,0-0.3,0.1-0.5,0.2C3.4,3.9,3.3,4,3.3,4.2v10c0,0.2,0.1,0.3,0.2,0.5
	c0.1,0.1,0.3,0.2,0.5,0.2h10c0.2,0,0.3-0.1,0.5-0.2c0.1-0.1,0.2-0.3,0.2-0.5v-4c0-0.2,0.1-0.3,0.2-0.5c0.1-0.1,0.3-0.2,0.5-0.2
	c0.2,0,0.3,0.1,0.5,0.2C15.9,9.9,16,10,16,10.2v4c0,0.5-0.2,1-0.6,1.4C15,16,14.6,16.2,14,16.2H4c-0.5,0-1-0.2-1.4-0.6
	C2.2,15.3,2,14.8,2,14.2v-10c0-0.5,0.2-1,0.6-1.4C3,2.4,3.4,2.2,4,2.2L4,2.2z"/>
<g class="st2">
	<path class="st3" d="M5.4,12.6V1H3.9v2.9H1v1.4h2.9v7.3c0,0.4,0.1,0.7,0.4,1c0.3,0.3,0.6,0.4,1,0.4h7.3V17h1.4v-2.9H17v-1.4H5.4z
		 M12.6,11.2h1.4V5.4c0-0.4-0.1-0.7-0.4-1c-0.3-0.3-0.6-0.4-1-0.4H6.8v1.4h5.8V11.2z M12,7.1l-1-1l-4.6,4.6l1,1L12,7.1z"/>
</g>
<g class="st2">
	<path class="st4" d="M12.6,1H5.7c-1.7,0-3,1.4-3,3v1.6H2.3l-0.1,0C1.9,5.7,1.7,6,1.6,6.3C1.6,6.7,1.9,7,2.3,7h0.4v4H2.3l-0.1,0
		c-0.3,0-0.6,0.3-0.6,0.7c0,0.4,0.3,0.7,0.7,0.7h0.4V14c0,1.7,1.4,3,3,3h6.9c1.7,0,3-1.4,3-3V4C15.6,2.4,14.3,1,12.6,1z M14.3,14
		L14.3,14c0,1-0.8,1.7-1.7,1.7H5.7l-0.1,0C4.7,15.6,4,14.9,4,14v-1.6h0.4l0.1,0C4.8,12.3,5,12,5,11.7C5,11.3,4.8,11,4.4,11H4V7h0.4
		l0.1,0C4.8,7,5,6.7,5,6.3C5,6,4.8,5.7,4.4,5.7H4V4L4,4c0-0.9,0.8-1.6,1.7-1.6h6.9l0.1,0c0.9,0,1.6,0.8,1.6,1.7V14z M11.7,6
		C11.3,6,11,6.3,11,6.7v4.6l0,0.1c0,0.3,0.3,0.6,0.7,0.6c0.4,0,0.7-0.3,0.7-0.7V6.7l0-0.1C12.3,6.3,12,6,11.7,6z"/>
</g>
</svg>
