<?xml version="1.0" encoding="utf-8"?>
<!-- Generator: Adobe Illustrator 25.4.1, SVG Export Plug-In . SVG Version: 6.00 Build 0)  -->
<svg version="1.1" id="图层_1" xmlns="http://www.w3.org/2000/svg" xmlns:xlink="http://www.w3.org/1999/xlink" x="0px" y="0px"
	 viewBox="0 0 24 24" style="enable-background:new 0 0 24 24;" xml:space="preserve">
<style type="text/css">
	.st0{fill:#595959;}
</style>
<g>
	<path class="st0" d="M14.5,4h7c0.6,0,1-0.5,1-1c0-0.6-0.4-1-1-1h-7c-0.6,0-1,0.5-1,1C13.5,3.6,14,4,14.5,4z M9,1H4
		C2.6,1,1.5,2.1,1.5,3.5v5C1.5,9.9,2.6,11,4,11h5c1.4,0,2.5-1.1,2.5-2.5v-5C11.5,2.1,10.4,1,9,1z M9.5,8.5C9.5,8.8,9.3,9,9,9H4
		C3.7,9,3.5,8.8,3.5,8.5v-5C3.5,3.2,3.7,3,4,3h5c0.3,0,0.5,0.2,0.5,0.5V8.5z M21.5,8h-7c-0.6,0-1,0.4-1,1c0,0.5,0.4,1,1,1h7
		c0.6,0,1-0.4,1-1C22.5,8.5,22.1,8,21.5,8z M9,13H4c-1.4,0-2.5,1.1-2.5,2.5v5C1.5,21.9,2.6,23,4,23h5c1.4,0,2.5-1.1,2.5-2.5v-5
		C11.5,14.1,10.4,13,9,13z M9.5,20.5C9.5,20.8,9.3,21,9,21H4c-0.3,0-0.5-0.2-0.5-0.5v-5C3.5,15.2,3.7,15,4,15h5
		c0.3,0,0.5,0.2,0.5,0.5V20.5z M21.5,14h-7c-0.6,0-1,0.5-1,1c0,0.6,0.4,1,1,1h7c0.6,0,1-0.5,1-1C22.5,14.4,22.1,14,21.5,14z
		 M21.5,20h-7c-0.6,0-1,0.4-1,1c0,0.5,0.4,1,1,1h7c0.6,0,1-0.4,1-1C22.5,20.5,22.1,20,21.5,20z"/>
</g>
</svg>
