<?xml version="1.0" standalone="no"?><!DOCTYPE svg PUBLIC "-//W3C//DTD SVG 1.1//EN" "http://www.w3.org/Graphics/SVG/1.1/DTD/svg11.dtd">
<svg t="1610423105297" class="icon" viewBox="0 0 1024 1024" version="1.1" xmlns="http://www.w3.org/2000/svg" p-id="2123"
     width="128" height="128"><defs><style type="text/css"></style></defs><path d="M512.3 928.4C283 928.4 97.2 742.5 97.2 513.3S283 98.2 512.3 98.2 927.4 284 927.4 513.3 741.5 928.4 512.3 928.4z m0-674.5c-28.4 0-51.1 23.5-50.2 51.9l8.2 248.5c0.8 22.6 19.3 40.6 41.9 40.6 22.6 0 41.2-17.9 41.9-40.6l8.2-248.5c1.1-28.4-21.6-51.9-50-51.9z m0 415.1c-13.7-0.2-26.9 5.2-36.6 14.9-10 9.4-15.5 22.5-15.3 36.2 0 14.5 5.1 26.6 15.3 36.4 9.7 9.6 22.9 14.9 36.6 14.7 13.7 0.2 26.8-5.1 36.6-14.7 10-9.4 15.6-22.7 15.3-36.4 0.2-13.7-5.3-26.8-15.3-36.2-9.7-9.8-22.9-15.1-36.6-14.9z" p-id="2124" fill="#d81e06"></path></svg>
